<?xml version="1.0" encoding="utf-8"?>
<!-- Generator: Adobe Illustrator 16.0.0, SVG Export Plug-In . SVG Version: 6.00 Build 0)  -->
<!DOCTYPE svg PUBLIC "-//W3C//DTD SVG 1.1//EN" "http://www.w3.org/Graphics/SVG/1.1/DTD/svg11.dtd">
<svg version="1.1" id="Layer_2" xmlns="http://www.w3.org/2000/svg" xmlns:xlink="http://www.w3.org/1999/xlink" x="0px" y="0px"
	 width="136px" height="59px" viewBox="0 0 136 59" enable-background="new 0 0 136 59" xml:space="preserve">
<g>
	<path fill="#43B25F" d="M97.534,12.363l-3.745,4.9l1.074,2.038l4.296-5.036c-0.288-0.395-0.606-0.795-0.96-1.204
		C97.999,12.832,97.775,12.598,97.534,12.363z"/>
	<path fill="#43B25F" d="M97.501,12.332c-0.745-0.72-1.672-1.457-2.704-2.187l-2.232,5.11l0.877,1.642L97.501,12.332z"/>
	<path fill="#43B25F" d="M94.787,10.138c-1.001-0.708-2.1-1.409-3.229-2.082l-0.681,4.529l1.271,2.062L94.787,10.138z"/>
	<path fill="#43B25F" d="M95.007,19.738l0.787,1.584l4.878-4.467c-0.357-0.82-0.852-1.683-1.507-2.581L95.007,19.738z"/>
	<path fill="#43B25F" d="M101.354,19.053c-0.125-0.687-0.34-1.414-0.672-2.177l-4.406,4.922l0.494,1.177L101.354,19.053z"/>
	<path fill="#43B25F" d="M90.422,11.925l1.086-3.9c-1.363-0.812-2.766-1.583-4.082-2.273l0.184,3.135l0.533,0.437l1.461-2.384
		L88.624,9.8L90.422,11.925z"/>
	<path fill="#43B25F" d="M96.812,24.035l-3.58,1.912l3.275-2.444l-0.723-1.269l-6.432,2.682c3.354,1.428,7.386,1.567,8.852,1.566
		L96.812,24.035z"/>
	<path fill="#43B25F" d="M95.464,21.666l-0.741-1.301l-7.547,3.084l7.211-3.673l-0.781-1.372l-9.189,1.152
		c0.546,2.699,2.573,4.351,4.939,5.359L95.464,21.666z"/>
	<path fill="#43B25F" d="M97.083,23.618l1.692,2.854l0.469-0.256c0,0,2.902-2.736,2.115-7.13L97.083,23.618z"/>
	<path fill="#43B25F" d="M93.141,17.587l-0.877-1.538l-7.908,1.987l7.6-2.533L91.2,14.179l-7.151,2.006
		c0.104,0.822,0.188,1.626,0.236,2.394c0.021,0.337,0.064,0.659,0.129,0.968L93.141,17.587z"/>
	<path fill="#43B25F" d="M90.854,13.575l-0.521-0.916l-6.368,0.909l6.081-1.362l-0.935-1.183l-5.733,0.101l5.44-0.508L87.84,9.8
		l-5.021-0.931l4.746,0.385l-0.86-0.569l-4.397-1.647l4.121,1.101l-1.72-1.556l-2.76-1.45l2.346,1.005l-3.239-3.479
		c0,0,2.184,7.242,2.988,13.483L90.854,13.575z"/>
	<path fill="#43B25F" d="M85.827,4.996l0.121,2.249l1.004,1.005l0.44-2.514c-3.47-1.817-6.342-3.076-6.342-3.076l4.409,4.154
		L85.827,4.996z"/>
</g>
<path fill="#4E4E4E" d="M-364.305-500.404c1.154,1.886,2.364,2.99,2.223,3.881c-0.138,0.871-1.568,1.856-2.604,2.123
	c-0.474,0.123-1.975-1.407-1.917-2.098C-366.516-497.551-365.481-498.527-364.305-500.404z"/>
<g>
	<path fill="#43B25F" d="M101.541,28.24c1.548,0.942,5.898,3.376,10.385,3.937l-5.021-7.125l-1.603,0.952l1.847,4.834l-2.519-4.435
		L101.541,28.24z"/>
	<path fill="#43B25F" d="M108.598,13.997c-1.287,0.582-2.377,1.227-3.298,1.913l2.2,8.121l1.879-1.263L108.598,13.997z"/>
	<path fill="#43B25F" d="M109.818,22.373l2.48-1.584l-0.717-7.877c-0.411,0.107-0.801,0.225-1.165,0.354
		c-0.646,0.228-1.244,0.472-1.812,0.727L109.818,22.373z"/>
	<path fill="#43B25F" d="M120.742,11.942c-1.637,0.027-3.262,0.103-4.786,0.25l-0.19,6.729l2.701-1.486L120.742,11.942z"/>
	<path fill="#43B25F" d="M112.91,20.601l2.014-1.269l1.018-7.14c-1.571,0.152-3.039,0.379-4.303,0.705L112.91,20.601z"/>
	<path fill="#43B25F" d="M119.387,16.992l3.305-1.217l0.855-3.823l-0.031,3.6l0.854-0.145l2.266-3.382
		c-1.848-0.075-3.838-0.116-5.812-0.085L119.387,16.992z"/>
	<path fill="#43B25F" d="M129.688,14.469l3.144,0.385l-3.874-0.155l-2.848,0.633l5.084,1.419l-5.734-0.988l-1.286,0.083l5.271,2.619
		l-5.922-2.188l-1.571,0.283l5.411,4.062l-5.99-3.796l-1.768,0.721l5.521,5.427l-6.127-5.105l-1.158,0.688l5.502,7.242
		c4.977-6.45,12.069-13.131,12.069-13.131L129.688,14.469z"/>
	<path fill="#43B25F" d="M125.482,15.117l1.725-0.477l1.613-2.433l-0.814,2.264l7.403-1.805c0,0-3.866-0.439-8.732-0.64
		L125.482,15.117z"/>
	<path fill="#43B25F" d="M105.377,25.25l1.301-0.996l-1.4-8.326c-0.854,0.639-1.562,1.312-2.149,1.998L105.377,25.25z"/>
	<path fill="#43B25F" d="M117.076,19.008l-1.672,0.994l6.353,7.709l-7.042-7.3l-1.941,1.155l7.927,7.794
		c0.271-0.306,0.528-0.635,0.774-0.998c0.561-0.825,1.178-1.671,1.832-2.521L117.076,19.008z"/>
	<path fill="#43B25F" d="M111.742,22.178l-1.732,1.029l5.189,8.732l-5.934-8.292l-1.646,0.977l4.306,7.551
		c3.17,0.396,6.402-0.146,8.764-2.808L111.742,22.178z"/>
	<path fill="#43B25F" d="M103.098,17.959c-3.736,4.398-2.477,9.318-2.477,9.318l0.326,0.587l3.674-2.1L103.098,17.959z"/>
</g>
<path fill="#FFFFFF" d="M-385.423-196.566"/>
<g>
	<path fill="#FAFAFA" d="M18.979,22.427c1.964-3.388,4.615-6.088,7.462-6.088c1.375,0,3.339,1.031,3.339,4.271v28.623
		c0,3.684,2.356,3.389,2.356,4.418c0,0.736-0.982,1.668-2.504,1.668c-1.424,0-3.633-1.129-3.683-5.252V20.905
		c0-0.638-0.245-0.688-0.441-0.688c-1.473,0-6.529,7.61-6.529,11.783v18.951c0,0.834-0.639,1.129-1.375,1.129
		c-1.129,0-2.454-0.688-2.454-1.424V20.169c-4.419,0.54-8.053,3.83-8.053,10.015c0,3.928,1.965,6.434,2.603,6.434
		c0.295,0,0.54-0.196,0.786-0.196c0.245,0,0.393,0.246,0.393,0.589c0,1.67-1.375,3.24-2.651,3.24c-1.669,0-5.008-4.318-5.008-10.062
		c0-10.41,8.003-13.847,13.796-13.847c1.03,0,1.964,0.884,1.964,2.062L18.979,22.427L18.979,22.427z"/>
	<path fill="#FAFAFA" d="M50.479,43.538c0.196-1.031,0.688-1.474,1.178-1.474c0.786,0,1.719,1.082,1.719,2.014
		c0,0.049,0,0.146-0.049,0.344c-0.835,3.24-2.799,7.659-7.021,7.659c-1.719,0-3.044-0.834-3.781-2.013
		c-0.981,1.129-2.355,2.013-4.222,2.013c-3.829,0-5.842-3.24-5.842-7.413c0-8.199,5.695-13.207,11.684-13.207
		c1.326,0,2.259,0.785,2.259,2.062c0,0.834-0.147,1.129-0.638,1.129c-0.442,0-0.933-0.098-1.424-0.098
		c-3.731,0-8.102,3.189-8.102,10.26c0,2.553,1.081,4.024,2.799,4.024c1.326,0,2.209-1.178,2.75-2.553v-7.562
		c0-0.934-0.196-1.229-0.196-1.57c0-0.491,0.589-0.836,1.276-0.836c1.619,0,2.65,0.982,2.65,2.16v8.103
		c0,1.08,0.491,2.258,1.669,2.258C49.152,48.84,50.036,45.698,50.479,43.538z"/>
	<path fill="#FAFAFA" d="M50.675,27.779v-8.297c0-1.424-0.491-1.522-0.491-1.866c0-0.343,0.884-0.54,1.571-0.54
		c1.62,0,2.651,0.982,2.651,2.161v8.591c2.994,0,6.431-0.049,9.77-0.196c1.375-1.473,0.933,3.24-0.344,3.29
		c-3.928,0.098-6.824,0.098-9.426,0.098v15.563c0,1.571,0.638,2.258,1.669,2.258c1.964,0,2.848-3.142,3.289-5.302
		c0.196-1.031,0.688-1.473,1.179-1.473c0.785,0,1.718,1.08,1.718,2.013c0,0.049,0,0.147-0.049,0.344
		c-0.835,3.24-2.799,7.659-7.021,7.659c-2.651,0-4.517-1.571-4.517-5.449V31.02c-2.16,0-3.388-0.099-3.388-0.099
		c-1.571,0-2.455-3.29-1.031-3.29C46.256,27.631,48.023,27.729,50.675,27.779z"/>
	<path fill="#FAFAFA" d="M69.036,48.595c-1.179,2.062-2.749,3.535-4.909,3.535c-3.289,0-5.204-2.799-5.204-7.069
		c0-5.205,1.768-11.047,1.768-11.047c0.343-0.834,0-1.814,2.602-1.814c2.406,0,0.981,1.964,0.786,2.699
		c-0.885,3.634-1.425,5.793-1.425,9.916c0,2.651,0.835,4.076,2.259,4.076c1.964,0,3.438-3.19,4.024-6.629v-7.904
		c0-1.424-0.489-1.521-0.489-1.864c0-0.345,0.883-0.54,1.571-0.54c1.619,0,2.648,0.98,2.648,2.158v12.472
		c0,0.44,0,2.258,1.275,2.258c1.965,0,2.849-3.142,3.289-5.302c0.197-1.031,0.688-1.475,1.18-1.475c0.786,0,1.719,1.082,1.719,2.015
		c0,0.049,0,0.146-0.05,0.344c-0.883,3.24-2.798,7.659-7.021,7.659C70.854,52.081,69.38,50.559,69.036,48.595z"/>
	<path fill="#FAFAFA" d="M83.078,46.484c0-3.144,0.883-6.629,2.454-10.852h-3.731h-0.539c-0.05,1.915-0.344,6.188-1.228,9.034
		c-0.64,2.062-3.191,0.294-2.75-1.375c0.54-1.964,0.737-6.039,0.786-8.542c-1.229-0.688-2.111-1.718-2.111-3.143
		c0-1.375,1.178-2.257,2.455-2.257c1.178,0,2.553,0.589,3.093,2.602c1.62,0.194,2.11,0.194,2.603,0.194h2.554
		c0.589,0,2.554,1.621,2.354,2.75c0,0.59-2.209,6.384-2.209,11.293c0,1.373,0.641,2.65,1.965,2.65c2.26,0,3.094-3.142,3.535-5.302
		c0.195-1.031,0.688-1.474,1.178-1.474c0.785,0,1.72,1.082,1.72,2.014c0,0.146-0.05,0.245-0.05,0.344
		c-0.885,3.24-2.799,7.659-7.021,7.659C85.827,52.081,83.078,50.805,83.078,46.484z"/>
	<path fill="#FAFAFA" d="M96.529,45.796c0.688,1.669,2.014,3.044,4.563,3.044c3.83,0,5.401-3.191,5.99-6.186
		c0.44-2.209,3.188-1.229,2.994,0.49c-0.345,2.996-2.31,8.936-9.522,8.936c-4.47,0-8.689-3.584-8.689-9.721
		c0-6.235,3.73-10.899,7.512-10.899c2.749,0,4.418,2.013,4.418,4.958C103.795,40.052,101.291,44.373,96.529,45.796z M95.939,43.096
		c2.455-1.129,4.025-3.682,4.025-6.628c0-1.079-0.395-1.718-1.031-1.718c-2.404,0-3.143,5.4-3.043,7.462
		C95.891,42.507,95.939,42.802,95.939,43.096z"/>
</g>
</svg>
