<?xml version="1.0" encoding="utf-8"?>
<!-- Generator: Adobe Illustrator 16.0.0, SVG Export Plug-In . SVG Version: 6.00 Build 0)  -->
<!DOCTYPE svg PUBLIC "-//W3C//DTD SVG 1.1//EN" "http://www.w3.org/Graphics/SVG/1.1/DTD/svg11.dtd">
<svg version="1.1" id="Layer_2" xmlns="http://www.w3.org/2000/svg" xmlns:xlink="http://www.w3.org/1999/xlink" x="0px" y="0px"
	 width="102px" height="44px" viewBox="13.349 9.458 102 44" enable-background="new 13.349 9.458 102 44" xml:space="preserve">
<g>
	<path fill="#FFFFFF" d="M85.998,19.479l-2.822,3.694l0.809,1.536l3.238-3.796c-0.217-0.298-0.457-0.6-0.723-0.908
		C86.35,19.833,86.18,19.657,85.998,19.479z"/>
	<path fill="#FFFFFF" d="M85.973,19.456c-0.561-0.543-1.26-1.099-2.037-1.649l-1.684,3.852l0.662,1.238L85.973,19.456z"/>
	<path fill="#FFFFFF" d="M83.928,17.802c-0.754-0.534-1.582-1.062-2.434-1.569l-0.512,3.414l0.957,1.554L83.928,17.802z"/>
	<path fill="#FFFFFF" d="M84.094,25.039l0.594,1.193l3.676-3.367c-0.27-0.618-0.641-1.269-1.135-1.945L84.094,25.039z"/>
	<path fill="#FFFFFF" d="M88.877,24.522c-0.094-0.518-0.256-1.065-0.506-1.641l-3.322,3.71l0.373,0.887L88.877,24.522z"/>
	<path fill="#FFFFFF" d="M80.637,19.149l0.818-2.939c-1.027-0.612-2.084-1.193-3.076-1.714l0.139,2.364l0.402,0.329l1.102-1.797
		l-0.74,2.156L80.637,19.149z"/>
	<path fill="#FFFFFF" d="M85.455,28.277l-2.699,1.441l2.469-1.841l-0.543-0.957l-4.848,2.021c2.527,1.075,5.566,1.181,6.67,1.181
		L85.455,28.277z"/>
	<path fill="#FFFFFF" d="M84.438,26.492l-0.559-0.98l-5.688,2.324l5.434-2.77l-0.588-1.034l-6.928,0.869
		c0.412,2.034,1.939,3.28,3.725,4.04L84.438,26.492z"/>
	<path fill="#FFFFFF" d="M85.658,27.963l1.275,2.151l0.354-0.193c0,0,2.188-2.062,1.594-5.375L85.658,27.963z"/>
	<path fill="#FFFFFF" d="M82.688,23.417l-0.662-1.159l-5.961,1.498l5.729-1.91l-0.57-0.998l-5.391,1.512
		c0.08,0.62,0.143,1.226,0.18,1.805c0.014,0.254,0.049,0.497,0.096,0.729L82.688,23.417z"/>
	<path fill="#FFFFFF" d="M80.963,20.393l-0.393-0.69l-4.801,0.685l4.584-1.027l-0.703-0.892l-4.322,0.076l4.1-0.383l-0.736-0.615
		l-3.785-0.702l3.578,0.29l-0.65-0.429l-3.314-1.242l3.105,0.83l-1.295-1.173l-2.08-1.093l1.768,0.758l-2.443-2.623
		c0,0,1.646,5.459,2.254,10.164L80.963,20.393z"/>
	<path fill="#FFFFFF" d="M77.174,13.926l0.092,1.695l0.756,0.757l0.332-1.895c-2.615-1.37-4.779-2.318-4.779-2.318l3.324,3.131
		L77.174,13.926z"/>
</g>
<path fill="#4E4E4E" d="M-364.305-500.404c1.154,1.886,2.364,2.99,2.223,3.881c-0.138,0.871-1.568,1.856-2.604,2.123
	c-0.474,0.123-1.975-1.407-1.917-2.098C-366.516-497.551-365.481-498.527-364.305-500.404z"/>
<g>
	<path fill="#FFFFFF" d="M89.02,31.446c1.166,0.711,4.445,2.545,7.828,2.967l-3.785-5.369l-1.209,0.717l1.393,3.644l-1.898-3.344
		L89.02,31.446z"/>
	<path fill="#FFFFFF" d="M94.338,20.711c-0.971,0.439-1.791,0.925-2.486,1.442l1.658,6.122l1.418-0.953L94.338,20.711z"/>
	<path fill="#FFFFFF" d="M95.258,27.025l1.871-1.195l-0.541-5.937c-0.309,0.081-0.604,0.17-0.877,0.267
		c-0.486,0.172-0.939,0.355-1.365,0.548L95.258,27.025z"/>
	<path fill="#FFFFFF" d="M103.492,19.162c-1.232,0.021-2.459,0.078-3.607,0.188l-0.143,5.072l2.035-1.12L103.492,19.162z"/>
	<path fill="#FFFFFF" d="M97.588,25.689l1.52-0.957l0.766-5.382c-1.184,0.115-2.291,0.286-3.242,0.532L97.588,25.689z"/>
	<path fill="#FFFFFF" d="M102.471,22.969l2.49-0.917l0.646-2.882l-0.023,2.713l0.643-0.109l1.707-2.549
		c-1.393-0.057-2.893-0.087-4.383-0.064L102.471,22.969z"/>
	<path fill="#FFFFFF" d="M110.236,21.066l2.367,0.291l-2.92-0.117l-2.145,0.477l3.832,1.07l-4.324-0.745l-0.969,0.062l3.973,1.974
		l-4.465-1.649l-1.184,0.213l4.078,3.062l-4.516-2.861l-1.332,0.543l4.162,4.092l-4.617-3.849l-0.873,0.519l4.146,5.458
		c3.75-4.861,9.098-9.898,9.098-9.898L110.236,21.066z"/>
	<path fill="#FFFFFF" d="M107.066,21.555l1.299-0.359l1.217-1.834l-0.613,1.707l5.58-1.361c0,0-2.914-0.331-6.582-0.482
		L107.066,21.555z"/>
	<path fill="#FFFFFF" d="M91.91,29.193l0.98-0.75l-1.055-6.277c-0.645,0.481-1.18,0.989-1.621,1.506L91.91,29.193z"/>
	<path fill="#FFFFFF" d="M100.729,24.488l-1.26,0.749l4.789,5.811l-5.309-5.502l-1.463,0.87l5.975,5.874
		c0.203-0.23,0.398-0.479,0.584-0.752c0.422-0.621,0.887-1.26,1.381-1.9L100.729,24.488z"/>
	<path fill="#FFFFFF" d="M96.709,26.877l-1.307,0.777l3.912,6.581l-4.473-6.249l-1.24,0.736l3.246,5.69
		c2.389,0.299,4.826-0.109,6.605-2.115L96.709,26.877z"/>
	<path fill="#FFFFFF" d="M90.191,23.698c-2.816,3.314-1.865,7.022-1.865,7.022l0.244,0.443l2.77-1.583L90.191,23.698z"/>
</g>
<path fill="#FFFFFF" d="M-385.423-196.566"/>
<g>
	<path fill="#FFFFFF" d="M26.029,27.064c1.48-2.553,3.479-4.588,5.625-4.588c1.037,0,2.517,0.777,2.517,3.219v21.575
		c0,2.775,1.776,2.553,1.776,3.33c0,0.555-0.74,1.258-1.888,1.258c-1.073,0-2.738-0.852-2.776-3.959V25.918
		c0-0.48-0.185-0.519-0.333-0.519c-1.11,0-4.921,5.736-4.921,8.881v14.285c0,0.629-0.482,0.852-1.037,0.852
		c-0.851,0-1.85-0.518-1.85-1.074V25.363c-3.331,0.407-6.07,2.887-6.07,7.548c0,2.961,1.481,4.85,1.962,4.85
		c0.223,0,0.407-0.148,0.592-0.148c0.185,0,0.296,0.186,0.296,0.443c0,1.258-1.037,2.443-1.998,2.443
		c-1.258,0-3.775-3.256-3.775-7.586c0-7.845,6.033-10.436,10.4-10.436c0.776,0,1.48,0.667,1.48,1.554L26.029,27.064L26.029,27.064z"
		/>
	<path fill="#FFFFFF" d="M50.528,42.978c0.147-0.777,0.519-1.111,0.888-1.111c0.592,0,1.295,0.816,1.295,1.52
		c0,0.037,0,0.109-0.037,0.258c-0.629,2.443-2.11,5.773-5.292,5.773c-1.296,0-2.294-0.629-2.85-1.516
		c-0.74,0.85-1.775,1.516-3.183,1.516c-2.886,0-4.404-2.441-4.404-5.588c0-6.18,4.293-9.955,8.808-9.955
		c1,0,1.703,0.592,1.703,1.555c0,0.629-0.111,0.852-0.481,0.852c-0.333,0-0.703-0.074-1.073-0.074c-2.812,0-6.107,2.404-6.107,7.734
		c0,1.924,0.814,3.033,2.109,3.033c1,0,1.665-0.887,2.073-1.924v-5.699c0-0.703-0.148-0.926-0.148-1.184
		c0-0.371,0.444-0.629,0.962-0.629c1.22,0,1.998,0.74,1.998,1.627v6.107c0,0.814,0.37,1.701,1.258,1.701
		C49.528,46.974,50.194,44.606,50.528,42.978z"/>
	<path fill="#FFFFFF" d="M50.676,31.099v-6.253c0-1.074-0.37-1.147-0.37-1.407c0-0.259,0.666-0.407,1.184-0.407
		c1.221,0,1.999,0.74,1.999,1.628v6.475c2.256,0,4.847-0.037,7.364-0.148c1.036-1.109,0.703,2.443-0.259,2.48
		c-2.961,0.074-5.144,0.074-7.105,0.074v11.73c0,1.186,0.48,1.703,1.258,1.703c1.48,0,2.146-2.369,2.479-3.996
		c0.148-0.777,0.519-1.111,0.889-1.111c0.592,0,1.294,0.814,1.294,1.518c0,0.037,0,0.111-0.037,0.26
		c-0.629,2.441-2.11,5.773-5.292,5.773c-1.998,0-3.405-1.186-3.405-4.107v-11.77c-1.628,0-2.554-0.074-2.554-0.074
		c-1.185,0-1.851-2.48-0.777-2.48C47.345,30.987,48.677,31.062,50.676,31.099z"/>
	<path fill="#FFFFFF" d="M64.517,46.79c-0.889,1.555-2.072,2.664-3.701,2.664c-2.479,0-3.923-2.109-3.923-5.328
		c0-3.924,1.333-8.328,1.333-8.328c0.259-0.629,0-1.367,1.961-1.367c1.814,0,0.739,1.48,0.593,2.035
		c-0.667,2.738-1.075,4.367-1.075,7.475c0,1.998,0.63,3.072,1.703,3.072c1.48,0,2.592-2.406,3.034-4.996v-5.959
		c0-1.074-0.369-1.146-0.369-1.406s0.665-0.406,1.184-0.406c1.22,0,1.998,0.738,1.998,1.627v9.4c0,0.332,0,1.701,0.962,1.701
		c1.48,0,2.146-2.367,2.48-3.996c0.148-0.777,0.518-1.111,0.889-1.111c0.592,0,1.295,0.816,1.295,1.52c0,0.037,0,0.109-0.037,0.258
		c-0.666,2.443-2.109,5.773-5.292,5.773C65.886,49.417,64.776,48.271,64.517,46.79z"/>
	<path fill="#FFFFFF" d="M75.102,45.198c0-2.369,0.666-4.996,1.85-8.178h-2.812h-0.406c-0.037,1.443-0.26,4.662-0.926,6.809
		c-0.482,1.555-2.404,0.223-2.072-1.035c0.406-1.48,0.555-4.553,0.592-6.439c-0.926-0.518-1.592-1.295-1.592-2.369
		c0-1.035,0.889-1.701,1.852-1.701c0.889,0,1.924,0.443,2.332,1.961c1.221,0.146,1.59,0.146,1.961,0.146h1.924
		c0.445,0,1.926,1.223,1.775,2.074c0,0.443-1.664,4.811-1.664,8.512c0,1.035,0.482,1.998,1.48,1.998
		c1.703,0,2.332-2.367,2.664-3.996c0.148-0.777,0.52-1.111,0.889-1.111c0.592,0,1.295,0.816,1.295,1.518
		c0,0.111-0.037,0.186-0.037,0.26c-0.666,2.443-2.109,5.773-5.291,5.773C77.174,49.417,75.102,48.456,75.102,45.198z"/>
	<path fill="#FFFFFF" d="M85.24,44.681c0.52,1.258,1.52,2.293,3.441,2.293c2.887,0,4.072-2.404,4.516-4.662
		c0.332-1.664,2.404-0.926,2.256,0.369c-0.258,2.26-1.74,6.736-7.178,6.736c-3.369,0-6.551-2.701-6.551-7.328
		c0-4.699,2.812-8.215,5.662-8.215c2.072,0,3.33,1.518,3.33,3.736C90.717,40.351,88.83,43.606,85.24,44.681z M84.797,42.644
		c1.85-0.85,3.035-2.773,3.035-4.996c0-0.812-0.297-1.293-0.779-1.293c-1.812,0-2.367,4.07-2.293,5.623
		C84.76,42.2,84.797,42.423,84.797,42.644z"/>
</g>
</svg>
